# ProBuilder 4.5.2
# https://unity3d.com/unity/features/worldbuilding/probuilder
# 08/02/2023 15:27:21

mtllib ./Arch.mtl
o Arch

g Arch
v 0 0 0
v 0.109262 1.039559 0
v 0 0 100
v 0.109262 1.039559 100
v 1.087409 0.8316468 0
v 1 0 0
v 1.087409 0.8316468 100
v 1 0 100
v 0.4322729 2.033683 0
v 0.4322729 2.033683 100
v 1.345818 1.626947 0
v 1.345818 1.626947 100
v 0.954915 2.938926 0
v 0.954915 2.938926 100
v 1.763932 2.351141 0
v 1.763932 2.351141 100
v 1.654347 3.715724 0
v 1.654347 3.715724 100
v 2.323478 2.972579 0
v 2.323478 2.972579 100
v 2.5 4.330127 0
v 2.5 4.330127 100
v 3 3.464102 0
v 3 3.464102 100
v 3.454915 4.755283 0
v 3.454915 4.755283 100
v 3.763932 3.804226 0
v 3.763932 3.804226 100
v 4.477358 4.97261 0
v 4.477358 4.97261 100
v 4.581886 3.978088 0
v 4.581886 3.978088 100
v 5.522643 4.97261 0
v 5.522643 4.97261 100
v 5.418114 3.978088 0
v 5.418114 3.978088 100
v 6.545085 4.755283 0
v 6.545085 4.755283 100
v 6.236068 3.804226 0
v 6.236068 3.804226 100
v 7.5 4.330127 0
v 7.5 4.330127 100
v 7 3.464102 0
v 7 3.464102 100
v 8.345654 3.715724 0
v 8.345654 3.715724 100
v 7.676523 2.972579 0
v 7.676523 2.972579 100
v 9.045086 2.938926 0
v 9.045086 2.938926 100
v 8.236069 2.351141 0
v 8.236069 2.351141 100
v 9.567728 2.033683 0
v 9.567728 2.033683 100
v 8.654182 1.626946 0
v 8.654182 1.626946 100
v 9.890738 1.039558 0
v 9.890738 1.039558 100
v 8.91259 0.8316464 0
v 8.91259 0.8316464 100
v 10 -4.371139E-07 0
v 10 -4.371139E-07 100
v 9 -3.496911E-07 0
v 9 -3.496911E-07 100

vt 0 0
vt 0 1.045285
vt 100 0
vt 100 1.045285
vt 0 0.9407561
vt 0 0.1045283
vt -100 0.9407561
vt -100 0.1045283
vt 0 100
vt 1 100
vt 1 0
vt 0 1.022443
vt 0 2.067728
vt 100 1.022443
vt 100 2.067728
vt 0 1.963199
vt 0 1.126971
vt -100 1.963199
vt -100 1.126971
vt 0 1.977358
vt 0 3.022642
vt 100 1.977358
vt 100 3.022642
vt 0 2.918114
vt 0 2.081886
vt -100 2.918114
vt -100 2.081886
vt 0 2.823011
vt 0 3.868296
vt 100 2.823011
vt 100 3.868296
vt 0 3.763767
vt 0 2.927539
vt -100 3.763767
vt -100 2.927539
vt -3.522443 0
vt -4.567728 0
vt -3.522443 100
vt -4.567728 100
vt 4.463199 0
vt 3.626971 0
vt 4.463199 100
vt 3.626971 100
vt -4.045086 0
vt -5.09037 0
vt -4.045086 100
vt -5.09037 100
vt 4.985841 0
vt 4.149613 0
vt 4.985841 100
vt 4.149613 100
vt -4.368094 0
vt -5.413379 0
vt -4.368094 100
vt -5.413379 100
vt 5.308852 0
vt 4.472624 0
vt 5.308852 100
vt 4.472624 100
vt -4.477358 0
vt -5.522643 0
vt -4.477358 100
vt -5.522643 100
vt 5.418114 0
vt 4.581886 0
vt 5.418114 100
vt 4.581886 100
vt 0 -2.823013
vt 0 -3.868298
vt -100 -2.823013
vt -100 -3.868298
vt 0 -3.763769
vt 0 -2.927541
vt 100 -3.763769
vt 100 -2.927541
vt 0 -1.977356
vt 0 -3.022641
vt -100 -1.977356
vt -100 -3.022641
vt 0 -2.918113
vt 0 -2.081886
vt 100 -2.918113
vt 100 -2.081886
vt 0 -1.022432
vt 0 -2.067716
vt -100 -1.022432
vt -100 -2.067716
vt 0 -1.963189
vt 0 -1.126961
vt 100 -1.963189
vt 100 -1.126961
vt 0 -1.045289
vt -100 -4.675434E-06
vt -100 -1.045289
vt 0 -0.9407605
vt 0 -0.1045327
vt 100 -0.9407605
vt 100 -0.1045327
vt 9 100
vt 10 100
vt 9 0
vt 10 0
vt 0.109262 1.039559
vt 1.087409 0.8316468
vt -0.109262 1.039559
vt -1.087409 0.8316468
vt -1 0
vt 0.4322729 2.033683
vt 1.345818 1.626947
vt -0.4322729 2.033683
vt -1.345818 1.626947
vt 0.954915 2.938926
vt 1.763932 2.351141
vt -0.954915 2.938926
vt -1.763932 2.351141
vt 1.654347 3.715724
vt 2.323478 2.972579
vt -1.654347 3.715724
vt -2.323478 2.972579
vt 2.5 4.330127
vt 3 3.464102
vt -2.5 4.330127
vt -3 3.464102
vt 3.454915 4.755283
vt 3.763932 3.804226
vt -3.454915 4.755283
vt -3.763932 3.804226
vt 4.477358 4.97261
vt 4.581886 3.978088
vt -4.477358 4.97261
vt -4.581886 3.978088
vt 5.522643 4.97261
vt 5.418114 3.978088
vt -5.522643 4.97261
vt -5.418114 3.978088
vt 6.545085 4.755283
vt 6.236068 3.804226
vt -6.545085 4.755283
vt -6.236068 3.804226
vt 7.5 4.330127
vt 7 3.464102
vt -7.5 4.330127
vt -7 3.464102
vt 8.345654 3.715724
vt 7.676523 2.972579
vt -8.345654 3.715724
vt -7.676523 2.972579
vt 9.045086 2.938926
vt 8.236069 2.351141
vt -9.045086 2.938926
vt -8.236069 2.351141
vt 9.567728 2.033683
vt 8.654182 1.626946
vt -9.567728 2.033683
vt -8.654182 1.626946
vt 9.890738 1.039558
vt 8.91259 0.8316464
vt -9.890738 1.039558
vt -8.91259 0.8316464
vt -10 -4.371139E-07
vt -9 -3.496911E-07

vn -0.9945219 0.1045284 0
vn 0.9945219 -0.1045283 0
vn 0 -1 0
vn -0.9510565 0.3090172 0
vn 0.9510564 -0.3090172 0
vn -0.8660254 0.4999999 0
vn 0.8660255 -0.4999999 0
vn -0.7431449 0.6691306 0
vn 0.7431449 -0.6691306 0
vn -0.5877852 0.8090171 0
vn 0.5877854 -0.8090169 0
vn -0.4067368 0.9135454 0
vn 0.4067365 -0.9135455 0
vn -0.2079114 0.9781476 0
vn 0.2079117 -0.9781476 0
vn 0 1 0
vn 0.2079115 0.9781476 0
vn -0.2079118 -0.9781476 0
vn 0.4067371 0.9135453 0
vn -0.4067367 -0.9135454 0
vn 0.5877849 0.8090172 0
vn -0.5877851 -0.8090171 0
vn 0.7431447 0.6691307 0
vn -0.7431447 -0.6691307 0
vn 0.8660255 0.4999998 0
vn -0.8660255 -0.4999999 0
vn 0.9510568 0.3090159 0
vn -0.9510569 -0.3090159 0
vn 0.9945219 0.1045289 0
vn -0.9945219 -0.1045289 0
vn 0 0 1
vn 0 0 -1

usemtl Dark
f 3/3/1 2/2/1 1/1/1
f 3/3/1 4/4/1 2/2/1
f 7/7/2 6/6/2 5/5/2
f 7/7/2 8/8/2 6/6/2
f 1/1/3 8/10/3 3/9/3
f 1/1/3 6/11/3 8/10/3
f 4/14/4 9/13/4 2/12/4
f 4/14/4 10/15/4 9/13/4
f 12/18/5 5/17/5 11/16/5
f 12/18/5 7/19/5 5/17/5
f 10/22/6 13/21/6 9/20/6
f 10/22/6 14/23/6 13/21/6
f 16/26/7 11/25/7 15/24/7
f 16/26/7 12/27/7 11/25/7
f 14/30/8 17/29/8 13/28/8
f 14/30/8 18/31/8 17/29/8
f 20/34/9 15/33/9 19/32/9
f 20/34/9 16/35/9 15/33/9
f 18/38/10 21/37/10 17/36/10
f 18/38/10 22/39/10 21/37/10
f 24/42/11 19/41/11 23/40/11
f 24/42/11 20/43/11 19/41/11
f 22/46/12 25/45/12 21/44/12
f 22/46/12 26/47/12 25/45/12
f 28/50/13 23/49/13 27/48/13
f 28/50/13 24/51/13 23/49/13
f 26/54/14 29/53/14 25/52/14
f 26/54/14 30/55/14 29/53/14
f 32/58/15 27/57/15 31/56/15
f 32/58/15 28/59/15 27/57/15
f 30/62/16 33/61/16 29/60/16
f 30/62/16 34/63/16 33/61/16
f 36/66/3 31/65/3 35/64/3
f 36/66/3 32/67/3 31/65/3
f 34/54/17 37/53/17 33/52/17
f 34/54/17 38/55/17 37/53/17
f 40/58/18 35/57/18 39/56/18
f 40/58/18 36/59/18 35/57/18
f 38/46/19 41/45/19 37/44/19
f 38/46/19 42/47/19 41/45/19
f 44/50/20 39/49/20 43/48/20
f 44/50/20 40/51/20 39/49/20
f 42/38/21 45/37/21 41/36/21
f 42/38/21 46/39/21 45/37/21
f 48/42/22 43/41/22 47/40/22
f 48/42/22 44/43/22 43/41/22
f 46/70/23 49/69/23 45/68/23
f 46/70/23 50/71/23 49/69/23
f 52/74/24 47/73/24 51/72/24
f 52/74/24 48/75/24 47/73/24
f 50/78/25 53/77/25 49/76/25
f 50/78/25 54/79/25 53/77/25
f 56/82/26 51/81/26 55/80/26
f 56/82/26 52/83/26 51/81/26
f 54/86/27 57/85/27 53/84/27
f 54/86/27 58/87/27 57/85/27
f 60/90/28 55/89/28 59/88/28
f 60/90/28 56/91/28 55/89/28
f 58/93/29 61/92/29 57/1/29
f 58/93/29 62/94/29 61/92/29
f 64/97/30 59/96/30 63/95/30
f 64/97/30 60/98/30 59/96/30
f 63/101/3 62/100/3 64/99/3
f 63/101/3 61/102/3 62/100/3
f 8/11/31 4/103/31 3/1/31
f 8/11/31 7/104/31 4/103/31
f 5/106/32 1/1/32 2/105/32
f 5/106/32 6/107/32 1/1/32
f 7/104/31 10/108/31 4/103/31
f 7/104/31 12/109/31 10/108/31
f 11/111/32 2/105/32 9/110/32
f 11/111/32 5/106/32 2/105/32
f 12/109/31 14/112/31 10/108/31
f 12/109/31 16/113/31 14/112/31
f 15/115/32 9/110/32 13/114/32
f 15/115/32 11/111/32 9/110/32
f 16/113/31 18/116/31 14/112/31
f 16/113/31 20/117/31 18/116/31
f 19/119/32 13/114/32 17/118/32
f 19/119/32 15/115/32 13/114/32
f 20/117/31 22/120/31 18/116/31
f 20/117/31 24/121/31 22/120/31
f 23/123/32 17/118/32 21/122/32
f 23/123/32 19/119/32 17/118/32
f 24/121/31 26/124/31 22/120/31
f 24/121/31 28/125/31 26/124/31
f 27/127/32 21/122/32 25/126/32
f 27/127/32 23/123/32 21/122/32
f 28/125/31 30/128/31 26/124/31
f 28/125/31 32/129/31 30/128/31
f 31/131/32 25/126/32 29/130/32
f 31/131/32 27/127/32 25/126/32
f 32/129/31 34/132/31 30/128/31
f 32/129/31 36/133/31 34/132/31
f 35/135/32 29/130/32 33/134/32
f 35/135/32 31/131/32 29/130/32
f 36/133/31 38/136/31 34/132/31
f 36/133/31 40/137/31 38/136/31
f 39/139/32 33/134/32 37/138/32
f 39/139/32 35/135/32 33/134/32
f 40/137/31 42/140/31 38/136/31
f 40/137/31 44/141/31 42/140/31
f 43/143/32 37/138/32 41/142/32
f 43/143/32 39/139/32 37/138/32
f 44/141/31 46/144/31 42/140/31
f 44/141/31 48/145/31 46/144/31
f 47/147/32 41/142/32 45/146/32
f 47/147/32 43/143/32 41/142/32
f 48/145/31 50/148/31 46/144/31
f 48/145/31 52/149/31 50/148/31
f 51/151/32 45/146/32 49/150/32
f 51/151/32 47/147/32 45/146/32
f 52/149/31 54/152/31 50/148/31
f 52/149/31 56/153/31 54/152/31
f 55/155/32 49/150/32 53/154/32
f 55/155/32 51/151/32 49/150/32
f 56/153/31 58/156/31 54/152/31
f 56/153/31 60/157/31 58/156/31
f 59/159/32 53/154/32 57/158/32
f 59/159/32 55/155/32 53/154/32
f 60/157/31 62/102/31 58/156/31
f 60/157/31 64/101/31 62/102/31
f 63/161/32 57/158/32 61/160/32
f 63/161/32 59/159/32 57/158/32

